<?xml version="1.0" encoding="UTF-8" standalone="no"?>
<!-- Created with Inkscape (http://www.inkscape.org/) -->
<svg xmlns:dc="http://purl.org/dc/elements/1.1/" xmlns:cc="http://creativecommons.org/ns#" xmlns:rdf="http://www.w3.org/1999/02/22-rdf-syntax-ns#" xmlns:svg="http://www.w3.org/2000/svg" xmlns="http://www.w3.org/2000/svg" xmlns:sodipodi="http://sodipodi.sourceforge.net/DTD/sodipodi-0.dtd" xmlns:inkscape="http://www.inkscape.org/namespaces/inkscape" width="338.47012" height="94.532997" viewBox="0 0 89.553557 25.011856" version="1.1" id="svg582" inkscape:version="0.92.2 (5c3e80d, 2017-08-06)" sodipodi:docname="parti pirate.fr.svg">
  <defs id="defs576"/>
  <sodipodi:namedview id="base" pagecolor="#ffffff" bordercolor="#666666" borderopacity="1.0" inkscape:pageopacity="0.0" inkscape:pageshadow="2" inkscape:zoom="2.8" inkscape:cx="62.566622" inkscape:cy="59.910705" inkscape:document-units="mm" inkscape:current-layer="layer1" showgrid="false" fit-margin-top="15" fit-margin-right="15" fit-margin-bottom="15" fit-margin-left="15" units="px" inkscape:window-width="1600" inkscape:window-height="837" inkscape:window-x="-8" inkscape:window-y="-8" inkscape:window-maximized="1"/>
  <metadata id="metadata579">
    <rdf:RDF>
      <cc:Work rdf:about="">
        <dc:format>image/svg+xml</dc:format>
        <dc:type rdf:resource="http://purl.org/dc/dcmitype/StillImage"/>
        <dc:title/>
      </cc:Work>
    </rdf:RDF>
  </metadata>
  <g inkscape:label="Calque 1" inkscape:groupmode="layer" id="layer1" transform="translate(-66.348222,-125.74407)">

    <g style="display:inline" transform="matrix(0.28407098,0,0,-0.28407098,222.10371,441.94625)" id="g16313-3-6">
      <circle r="281.85272" cy="322.94876" cx="339.37369" transform="matrix(0.10662652,0,0,-0.10662652,-540.46006,1103.5207)" id="path3308-03-9" style="fill:#ffffff;fill-opacity:1;fill-rule:evenodd;stroke:none"/>
      <g id="g16309-5-8" transform="translate(-0.2426447,-0.81390252)">
        <path id="path3083-0-0" d="m -504.03278,1045.3338 c -13.56095,0 -24.56009,10.9982 -24.56009,24.5651 0,13.567 10.99914,24.5651 24.56009,24.5651 13.56896,0 24.56489,-10.9981 24.56489,-24.5651 0,-13.5669 -10.99593,-24.5651 -24.56489,-24.5651 m 0,51.9443 c -15.1176,0 -27.3768,-12.2537 -27.3768,-27.3792 0,-15.1191 12.2592,-27.3776 27.3768,-27.3776 15.1208,0 27.38,12.2601 27.38,27.3776 0,15.1271 -12.2608,27.3792 -27.38,27.3792" inkscape:connector-curvature="0" style="fill:#000000;fill-opacity:1"/>
        <path id="path3085-7-1" d="m -507.95566,1066.7673 c -1.43321,-1.0053 -2.62274,-1.9418 -3.60546,-2.8397 v 19.0396 c 1.9911,-0.4217 4.09922,-1.2828 5.55327,-2.9921 3.575,-4.2235 2.36303,-10.1836 -1.94781,-13.2078 m 15.62739,16.7579 c -5.92199,3.3224 -13.34292,3.3512 -19.23125,1.8424 v 2.5495 h -2.5554 v -3.3288 c -1.09815,-0.3977 -2.11134,-0.845 -3.01551,-1.3341 0,0 1.27129,0.1571 3.01551,0.048 v -22.2834 c -1.27129,-1.9546 -1.57589,-3.8579 -1.2745,-6.0547 0.33506,-2.4549 2.18829,-4.0952 3.64875,-5.3075 -0.86089,2.4774 -0.92662,4.7287 -0.67332,6.0932 0.48415,2.5463 1.97667,4.3759 8.41968,5.7725 6.68669,1.4415 14.6094,2.1086 17.22733,8.601 1.19273,2.9664 1.93178,9.1959 -5.56129,13.4018" inkscape:connector-curvature="0" style="fill:#000000;fill-opacity:1"/>
      </g>
    </g>
  </g>
</svg>